<svg width="20" height="20" viewBox="0 0 20 20" fill="none" xmlns="http://www.w3.org/2000/svg">
<path fill-rule="evenodd" clip-rule="evenodd" d="M9.57137 0C9.01908 0 8.57137 0.447715 8.57137 1V8.57142H1C0.447715 8.57142 0 9.01914 0 9.57143V10.4286C0 10.9809 0.447715 11.4286 1 11.4286H8.57137V19C8.57137 19.5523 9.01909 20 9.57137 20H10.4285C10.9808 20 11.4285 19.5523 11.4285 19V11.4286H19C19.5523 11.4286 20 10.9809 20 10.4286V9.57142C20 9.01914 19.5523 8.57142 19 8.57142H11.4285V1C11.4285 0.447715 10.9808 0 10.4285 0H9.57137Z" fill="#FEFEFE"/>
</svg>
