<svg width="18" height="18" viewBox="0 0 18 18" fill="none" xmlns="http://www.w3.org/2000/svg">
<path fill-rule="evenodd" clip-rule="evenodd" d="M0 7.91667C0 3.54443 3.54443 0 7.91667 0C12.2889 0 15.8333 3.54443 15.8333 7.91667C15.8333 9.80262 15.1739 11.5345 14.0729 12.8944L17.1339 15.9554C17.4593 16.2808 17.4593 16.8084 17.1339 17.1339C16.8084 17.4593 16.2808 17.4593 15.9554 17.1339L12.8944 14.0729C11.5345 15.1739 9.80262 15.8333 7.91667 15.8333C3.54443 15.8333 0 12.2889 0 7.91667ZM7.91667 1.66667C4.4649 1.66667 1.66667 4.4649 1.66667 7.91667C1.66667 11.3684 4.4649 14.1667 7.91667 14.1667C11.3684 14.1667 14.1667 11.3684 14.1667 7.91667C14.1667 4.4649 11.3684 1.66667 7.91667 1.66667Z" fill="#353438"/>
</svg>
