<svg width="18" height="18" viewBox="0 0 18 18" fill="none" xmlns="http://www.w3.org/2000/svg">
<g clip-path="url(#clip0_42_274)">
<circle cx="8.99999" cy="9" r="9" fill="#FEFEFE"/>
<path d="M10.125 0.0695987C9.76219 0.0243564 9.39267 0.00071103 9.01777 -1.37456e-05L8.98223 -1.37441e-05C8.60733 0.000711065 8.23781 0.0243565 7.875 0.0695988L7.875 7.87499L0.0696279 7.87499C0.0236726 8.24352 -4.10056e-07 8.61898 -3.93402e-07 8.99997C-3.76749e-07 9.38097 0.0236741 9.75644 0.0696323 10.125L7.875 10.125L7.875 17.9303C8.24354 17.9763 8.61901 18 9 18C9.38099 18 9.75646 17.9763 10.125 17.9303L10.125 10.125L17.9304 10.125C17.9763 9.75644 18 9.38097 18 8.99997C18 8.61898 17.9763 8.24352 17.9304 7.87499L10.125 7.87499L10.125 0.0695987Z" fill="#D80027"/>
<path d="M0 8.63384C0.192101 3.83305 4.14477 0 8.99269 0C8.99512 0 8.99756 9.6925e-07 9 2.90739e-06V9H0V8.63384Z" fill="#D80027"/>
<path fill-rule="evenodd" clip-rule="evenodd" d="M3.64324 1.76704C3.75945 2.03938 4.03916 2.22168 4.35938 2.22168H6.39844C6.50391 2.22168 6.60938 2.15137 6.60938 2.0459C6.60938 1.94043 6.50391 1.87012 6.39844 1.87012H4.5C4.292 1.87012 4.084 1.71628 3.98976 1.52239C4.09956 1.44868 4.21107 1.37732 4.32422 1.30838C4.32456 1.41343 4.39479 1.4834 4.5 1.4834H6.39844C6.71485 1.4834 6.96094 1.72949 6.96094 2.0459C6.96094 2.3623 6.71485 2.6084 6.39844 2.6084V4.54199C6.39844 4.6123 6.32813 4.68262 6.25782 4.68262H4.78125C4.71094 4.68262 4.64063 4.6123 4.64063 4.54199C4.64063 4.19043 4.92188 3.90918 5.27344 3.90918H5.58985V3.59277H3.58594V4.57715C3.58594 4.68262 3.51563 4.75293 3.41016 4.75293H1.96875C1.86329 4.75293 1.79297 4.68262 1.79297 4.57715C1.79297 4.22559 2.07422 3.94434 2.46094 3.94434H2.74219V3.62793C2.64221 3.62804 2.54324 3.60785 2.4513 3.56857C2.35936 3.52928 2.27635 3.47174 2.20731 3.39941C2.16028 3.35014 2.1204 3.2947 2.08869 3.23475C2.54666 2.68634 3.06867 2.19327 3.64324 1.76704ZM4.69088 1.09668C4.92405 0.969282 5.16347 0.851901 5.40857 0.745117H6.39844V1.09668H4.69088ZM2.24074 5.65773C2.39238 5.50609 2.59805 5.4209 2.8125 5.4209C3.0208 5.42996 3.21755 5.51914 3.36167 5.66981C3.50579 5.82048 3.58614 6.02099 3.58594 6.22949C3.58594 6.65137 3.9375 6.96777 4.35938 6.96777H6.39844C6.50391 6.96777 6.60938 6.89746 6.60938 6.79199C6.60938 6.68652 6.50391 6.61621 6.39844 6.61621H4.5C4.21875 6.61621 3.9375 6.33496 3.9375 6.05371C3.9375 5.7373 4.21875 5.49121 4.5 5.49121H6.39844V5.84277H4.5C4.39454 5.84277 4.32422 5.94824 4.32422 6.05371C4.32422 6.15918 4.39454 6.22949 4.5 6.22949H6.39844C6.71485 6.22949 6.96094 6.47559 6.96094 6.79199C6.96094 7.1084 6.71485 7.35449 6.39844 7.35449V9.28809C6.39844 9.3584 6.32813 9.42871 6.25782 9.42871H4.78125C4.71094 9.42871 4.64063 9.3584 4.64063 9.28809C4.64063 8.93652 4.92188 8.65527 5.27344 8.65527H5.58985V8.33887H3.58594V9.32324C3.58594 9.42871 3.51563 9.49902 3.41016 9.49902H1.96875C1.86329 9.49902 1.79297 9.42871 1.79297 9.32324C1.79297 8.97168 2.07422 8.69043 2.46094 8.69043H2.74219V8.37402C2.64221 8.37414 2.54324 8.35394 2.4513 8.31466C2.35936 8.27538 2.27635 8.21783 2.20731 8.14551C2.13828 8.07318 2.08465 7.98759 2.04969 7.89392C2.01472 7.80025 1.99915 7.70046 2.00391 7.60059H1.05469C0.984379 7.60059 0.914066 7.53027 0.914066 7.45996V5.9834C0.914066 5.91309 0.984379 5.84277 1.05469 5.84277C1.40625 5.84277 1.6875 6.12402 1.6875 6.47559V6.79199H2.00391V6.22949C2.00391 6.01504 2.0891 5.80937 2.24074 5.65773Z" fill="#FFDA44"/>
</g>
<defs>
<clipPath id="clip0_42_274">
<rect width="18" height="18" fill="white"/>
</clipPath>
</defs>
</svg>
